<svg width="80" height="80" viewBox="0 0 80 80" fill="none" xmlns="http://www.w3.org/2000/svg">
<g clip-path="url(#clip0_2602_4128)">
<path d="M64.9232 69.6775L61.9361 60.7149C60.8922 57.5859 58.229 55.2762 54.9825 54.6853L46.3593 53.1162V52.4478C47.86 51.5769 49.1658 50.4117 50.2058 49.0324H52.8109C54.9451 49.0324 56.6819 47.2956 56.6819 45.1614V29.6775C56.6819 20.4285 49.1567 12.9033 39.9077 12.9033C30.6587 12.9033 23.1335 20.4285 23.1335 29.6775V38.7098C23.1335 41.1975 24.9025 43.2788 27.2483 43.764C27.9722 47.4724 30.2896 50.6104 33.4561 52.4478V53.1162L24.8316 54.6853C21.5864 55.2762 18.9219 57.5859 17.8793 60.7149L17.3632 62.2646L12.9683 57.8698C12.4651 57.3665 12.4651 56.5472 12.9683 56.044L18.0651 50.9485L8.49867 41.382L2.73867 47.142C1.03286 48.8478 0.0935059 51.1162 0.0935059 53.5291C0.0935059 55.942 1.03286 58.2091 2.73867 59.9149L20.1774 77.3536C21.8832 79.0594 24.1516 80.0001 26.5645 80.0001C28.9774 80.0001 31.2445 79.0594 32.9103 77.3923L39.1954 71.6336L37.2354 69.6775H64.9232ZM54.1013 45.1614C54.1013 45.8736 53.5219 46.4517 52.8109 46.4517H51.7258C52.1 45.5988 52.3838 44.6994 52.5671 43.764C53.1193 43.6491 53.6277 43.4298 54.1013 43.1536V45.1614ZM52.8109 40.9317V36.4878C53.5787 36.9356 54.1013 37.7588 54.1013 38.7098C54.1013 39.6607 53.5787 40.484 52.8109 40.9317ZM27.0045 40.9317C26.2367 40.484 25.7142 39.6607 25.7142 38.7098C25.7142 37.7588 26.2367 36.9356 27.0045 36.4878V40.9317ZM27.0045 32.2582V33.7317C26.5451 33.8517 26.1142 34.0324 25.7142 34.2659V29.6775C25.7142 21.8517 32.0819 15.484 39.9077 15.484C47.7335 15.484 54.1013 21.8517 54.1013 29.6775V34.2659C53.7013 34.0324 53.2703 33.8504 52.8109 33.7317V32.2582H51.5206C47.7051 32.2582 44.118 30.7717 41.4187 28.0736L39.9077 26.5627L38.3967 28.0736C35.6974 30.7717 32.1103 32.2582 28.2948 32.2582H27.0045ZM29.5851 41.2904V34.7898C33.46 34.4982 37.0729 32.8995 39.9077 30.204C42.7425 32.8995 46.3554 34.4994 50.2303 34.7898V41.2904C50.2303 43.1717 49.7167 44.9317 48.8342 46.4517H39.9077V49.0324H46.7129C44.8935 50.6336 42.5154 51.613 39.9077 51.613C34.2161 51.613 29.5851 46.982 29.5851 41.2904ZM43.7787 53.5988V53.6594L39.9077 57.5304L36.0367 53.6594V53.5988C37.26 53.9833 38.5593 54.1936 39.9077 54.1936C41.2561 54.1936 42.5554 53.9833 43.7787 53.5988ZM20.3258 61.5304C21.0703 59.2956 22.9735 57.6453 25.2922 57.222L34.3116 55.5833L39.9077 61.1795L45.5025 55.5846L54.5206 57.2233C56.8393 57.6465 58.7425 59.2956 59.4871 61.5317L61.3438 67.0969H34.6548L29.629 62.0711L24.0445 67.1227C23.558 67.6117 22.7077 67.6117 22.22 67.1227L19.4019 64.3046L20.3258 61.5304ZM8.49738 45.0311L14.4148 50.9485L13.0135 52.3498L7.09609 46.4324L8.49738 45.0311ZM31.1232 75.5317C29.9051 76.7472 28.2845 77.4194 26.5619 77.4194C24.8393 77.4194 23.2187 76.7472 21.9993 75.5291L4.5606 58.0917C3.34254 56.8736 2.67157 55.253 2.67157 53.5304C2.67157 51.8065 3.34254 50.1859 4.5606 48.9678L5.27028 48.2582L11.1877 54.1756L11.1412 54.222C9.63286 55.7317 9.63286 58.1872 11.1412 59.6969L20.3942 68.9498C21.1258 69.6801 22.0974 70.084 23.1322 70.084C24.1671 70.084 25.1387 69.6814 25.8225 68.9949L25.9193 68.9085L31.8638 74.853L31.1232 75.5317ZM33.7683 73.1059L27.8367 67.1743L29.5413 65.6336L35.4625 71.5549L33.7683 73.1059Z" fill="#007F00"/>
<path d="M76.0366 0H57.972C55.8378 0 54.1011 1.73677 54.1011 3.87097V14.1935C54.1011 16.3277 55.8378 18.0645 57.972 18.0645H61.4185L60.0843 25.8465L72.5359 18.0645H76.0366C78.1708 18.0645 79.9075 16.3277 79.9075 14.1935V3.87097C79.9075 1.73677 78.1708 0 76.0366 0ZM77.3269 14.1935C77.3269 14.9045 76.7475 15.4839 76.0366 15.4839H71.7953L63.6004 20.6052L64.4791 15.4839H57.972C57.2611 15.4839 56.6817 14.9045 56.6817 14.1935V3.87097C56.6817 3.16 57.2611 2.58065 57.972 2.58065H76.0366C76.7475 2.58065 77.3269 3.16 77.3269 3.87097V14.1935Z" fill="#007F00"/>
<path d="M74.7463 5.16113H59.2625V7.74178H74.7463V5.16113Z" fill="#007F00"/>
<path d="M69.585 10.3223H59.2625V12.9029H69.585V10.3223Z" fill="#007F00"/>
<path d="M74.7462 10.3223H72.1655V12.9029H74.7462V10.3223Z" fill="#007F00"/>
<path d="M39.908 3.87109C23.0487 3.87109 8.52608 15.533 4.75059 31.8001L2.30543 27.724L0.0925293 29.0517L4.62801 36.6092L12.1854 32.0737L10.8577 29.8608L7.36092 31.9588C11.0177 17.0775 24.3996 6.45174 39.908 6.45174C43.2977 6.45174 46.6422 6.95496 49.8487 7.94851L50.6125 5.484C47.1583 4.41303 43.557 3.87109 39.908 3.87109Z" fill="#007F00"/>
<path d="M79.2805 28.5706L71.7231 24.0352L67.1889 31.5939L69.4018 32.9216L71.6598 29.1577C72.8482 32.6352 73.456 36.2726 73.456 40.0003C73.456 47.6739 70.7979 55.1758 65.9734 61.1229L67.9773 62.7487C73.1747 56.3436 76.0366 48.2635 76.0366 40.0003C76.0366 36.0532 75.4005 32.199 74.1605 28.5087L77.9527 30.7835L79.2805 28.5706Z" fill="#007F00"/>
</g>
<defs>
<clipPath id="clip0_2602_4128">
<rect width="80" height="80" fill="white"/>
</clipPath>
</defs>
</svg>
