<svg width="71" height="53" viewBox="0 0 71 53" fill="none" xmlns="http://www.w3.org/2000/svg">
<path fill-rule="evenodd" clip-rule="evenodd" d="M20.5037 47.4994C20.5037 46.8364 20.7671 46.2005 21.2359 45.7317C21.7047 45.2629 22.3406 44.9995 23.0036 44.9995H68.0016C68.6646 44.9995 69.3004 45.2629 69.7693 45.7317C70.2381 46.2005 70.5015 46.8364 70.5015 47.4994C70.5015 48.1624 70.2381 48.7983 69.7693 49.2671C69.3004 49.7359 68.6646 49.9993 68.0016 49.9993H23.0036C22.3406 49.9993 21.7047 49.7359 21.2359 49.2671C20.7671 48.7983 20.5037 48.1624 20.5037 47.4994ZM20.5037 27.5003C20.5037 26.8373 20.7671 26.2014 21.2359 25.7326C21.7047 25.2638 22.3406 25.0004 23.0036 25.0004H68.0016C68.6646 25.0004 69.3004 25.2638 69.7693 25.7326C70.2381 26.2014 70.5015 26.8373 70.5015 27.5003C70.5015 28.1633 70.2381 28.7992 69.7693 29.268C69.3004 29.7368 68.6646 30.0002 68.0016 30.0002H23.0036C22.3406 30.0002 21.7047 29.7368 21.2359 29.268C20.7671 28.7992 20.5037 28.1633 20.5037 27.5003ZM20.5037 7.5012C20.5037 6.83819 20.7671 6.20234 21.2359 5.73352C21.7047 5.2647 22.3406 5.00132 23.0036 5.00132H68.0016C68.6646 5.00132 69.3004 5.2647 69.7693 5.73352C70.2381 6.20234 70.5015 6.83819 70.5015 7.5012C70.5015 8.16422 70.2381 8.80007 69.7693 9.26889C69.3004 9.73771 68.6646 10.0011 68.0016 10.0011H23.0036C22.3406 10.0011 21.7047 9.73771 21.2359 9.26889C20.7671 8.80007 20.5037 8.16422 20.5037 7.5012ZM14.774 0.731506C15.0068 0.963724 15.1915 1.23959 15.3175 1.5433C15.4435 1.84701 15.5084 2.17261 15.5084 2.50143C15.5084 2.83025 15.4435 3.15584 15.3175 3.45955C15.1915 3.76326 15.0068 4.03913 14.774 4.27135L7.27432 11.771C7.0421 12.0038 6.76623 12.1885 6.46252 12.3146C6.15881 12.4406 5.83322 12.5054 5.5044 12.5054C5.17558 12.5054 4.84998 12.4406 4.54627 12.3146C4.24256 12.1885 3.9667 12.0038 3.73448 11.771L1.23459 9.27112C1.00216 9.0387 0.817787 8.76276 0.691998 8.45908C0.566208 8.15539 0.501465 7.82991 0.501465 7.5012C0.501465 7.1725 0.566208 6.84701 0.691998 6.54333C0.817787 6.23965 1.00216 5.96371 1.23459 5.73128C1.46702 5.49885 1.74295 5.31448 2.04664 5.18869C2.35032 5.0629 2.67581 4.99816 3.00451 4.99816C3.33321 4.99816 3.6587 5.0629 3.96238 5.18869C4.26607 5.31448 4.542 5.49885 4.77443 5.73128L5.5044 6.46625L11.2341 0.731506C11.4664 0.4987 11.7422 0.313995 12.0459 0.187968C12.3496 0.0619417 12.6752 -0.00292969 13.0041 -0.00292969C13.3329 -0.00292969 13.6585 0.0619417 13.9622 0.187968C14.2659 0.313995 14.5418 0.4987 14.774 0.731506ZM14.774 20.7306C15.0068 20.9628 15.1915 21.2387 15.3175 21.5424C15.4435 21.8461 15.5084 22.1717 15.5084 22.5005C15.5084 22.8294 15.4435 23.1549 15.3175 23.4587C15.1915 23.7624 15.0068 24.0382 14.774 24.2705L7.27432 31.7701C7.0421 32.0029 6.76623 32.1876 6.46252 32.3137C6.15881 32.4397 5.83322 32.5046 5.5044 32.5046C5.17558 32.5046 4.84998 32.4397 4.54627 32.3137C4.24256 32.1876 3.9667 32.0029 3.73448 31.7701L1.23459 29.2702C0.765178 28.8008 0.501465 28.1642 0.501465 27.5003C0.501465 26.8365 0.765178 26.1998 1.23459 25.7304C1.704 25.261 2.34066 24.9973 3.00451 24.9973C3.66836 24.9973 4.30502 25.261 4.77443 25.7304L5.5044 26.4654L11.2341 20.7306C11.4664 20.4978 11.7422 20.3131 12.0459 20.1871C12.3496 20.061 12.6752 19.9962 13.0041 19.9962C13.3329 19.9962 13.6585 20.061 13.9622 20.1871C14.2659 20.3131 14.5418 20.4978 14.774 20.7306ZM14.774 40.7297C15.0068 40.9619 15.1915 41.2378 15.3175 41.5415C15.4435 41.8452 15.5084 42.1708 15.5084 42.4996C15.5084 42.8285 15.4435 43.154 15.3175 43.4578C15.1915 43.7615 15.0068 44.0373 14.774 44.2696L7.27432 51.7692C7.0421 52.002 6.76623 52.1867 6.46252 52.3128C6.15881 52.4388 5.83322 52.5037 5.5044 52.5037C5.17558 52.5037 4.84998 52.4388 4.54627 52.3128C4.24256 52.1867 3.9667 52.002 3.73448 51.7692L1.23459 49.2693C0.765178 48.7999 0.501465 48.1633 0.501465 47.4994C0.501465 46.8356 0.765178 46.1989 1.23459 45.7295C1.704 45.2601 2.34066 44.9964 3.00451 44.9964C3.66836 44.9964 4.30502 45.2601 4.77443 45.7295L5.5044 46.4645L11.2341 40.7297C11.4664 40.4969 11.7422 40.3122 12.0459 40.1862C12.3496 40.0602 12.6752 39.9953 13.0041 39.9953C13.3329 39.9953 13.6585 40.0602 13.9622 40.1862C14.2659 40.3122 14.5418 40.4969 14.774 40.7297Z" fill="#007F00"/>
</svg>
