<svg width="7" height="11" viewBox="0 0 7 11" fill="none" xmlns="http://www.w3.org/2000/svg">
<path d="M6.29799 1.03571C6.29799 0.945312 6.25781 0.864955 6.19754 0.804688L5.69531 0.302455C5.63504 0.242188 5.54464 0.202008 5.46429 0.202008C5.38393 0.202008 5.29353 0.242188 5.23326 0.302455L0.552455 4.98326C0.492188 5.04353 0.452009 5.13393 0.452009 5.21429C0.452009 5.29464 0.492188 5.38504 0.552455 5.44531L5.23326 10.1261C5.29353 10.1864 5.38393 10.2266 5.46429 10.2266C5.54464 10.2266 5.63504 10.1864 5.69531 10.1261L6.19754 9.62388C6.25781 9.56362 6.29799 9.47321 6.29799 9.39286C6.29799 9.3125 6.25781 9.2221 6.19754 9.16183L2.25 5.21429L6.19754 1.26674C6.25781 1.20647 6.29799 1.11607 6.29799 1.03571Z" fill="#007F00"/>
</svg>
