<svg width="7" height="11" viewBox="0 0 7 11" fill="none" xmlns="http://www.w3.org/2000/svg">
<path d="M0.702009 1.03571C0.702009 0.945312 0.742187 0.864955 0.802455 0.804688L1.30469 0.302455C1.36496 0.242188 1.45536 0.202008 1.53571 0.202008C1.61607 0.202008 1.70647 0.242188 1.76674 0.302455L6.44754 4.98326C6.50781 5.04353 6.54799 5.13393 6.54799 5.21429C6.54799 5.29464 6.50781 5.38504 6.44754 5.44531L1.76674 10.1261C1.70647 10.1864 1.61607 10.2266 1.53571 10.2266C1.45536 10.2266 1.36496 10.1864 1.30469 10.1261L0.802455 9.62388C0.742187 9.56362 0.702009 9.47321 0.702009 9.39286C0.702009 9.3125 0.742187 9.2221 0.802455 9.16183L4.75 5.21429L0.802455 1.26674C0.742187 1.20647 0.702009 1.11607 0.702009 1.03571Z" fill="#007F00"/>
</svg>
