<svg width="133" height="50" viewBox="0 0 133 50" fill="none" xmlns="http://www.w3.org/2000/svg">
<path d="M28.8356 29.1284C28.4624 28.6952 28.1025 28.2954 27.776 27.9289C27.4561 28.3154 27.0963 28.7152 26.7164 29.1284C24.4373 31.6674 21.3052 35.206 21.3052 37.9582C21.2986 39.6375 21.9916 41.2436 23.2045 42.3964C24.4306 43.5826 26.07 44.249 27.776 44.2424C29.482 44.2557 31.128 43.5893 32.3475 42.3964C33.5537 41.2369 34.2401 39.6309 34.2467 37.9582C34.2534 35.1993 31.1147 31.6874 28.8356 29.1284ZM27.8559 42.8096C26.5498 42.8229 25.297 42.3231 24.3573 41.4168C23.4444 40.5372 22.9312 39.3243 22.9246 38.0582C22.8979 37.725 23.3044 37.4917 23.6443 37.705C23.7509 37.7783 23.8109 37.8982 23.8176 38.0315C23.8109 39.0777 24.2307 40.084 24.9838 40.8171C25.7435 41.5501 26.7631 41.9566 27.816 41.9499C28.0625 41.9433 28.2625 42.1365 28.2625 42.3831C28.2625 42.4564 28.2491 42.5297 28.2158 42.5963C28.1492 42.723 28.0092 42.8096 27.8559 42.8096Z" fill="#001870"/>
<path d="M38.9447 36.0523H35.9459C35.1729 36.0523 34.5465 35.4258 34.5465 34.6528C34.5465 33.8798 35.1729 33.2534 35.9459 33.2534H38.9447C39.4778 33.2534 39.911 32.8469 39.911 32.3537C39.911 32.0872 39.791 31.8406 39.5911 31.674L39.5844 31.6674C37.2121 29.7215 35.8526 26.8693 35.8526 23.8505V20.1853C35.8526 16.3402 32.8805 13.0281 28.9354 12.475L27.7758 12.3151L26.6163 12.475C22.6712 13.0281 19.6991 16.3402 19.6991 20.1853V23.8505C19.6991 26.8693 18.3329 29.7281 15.9539 31.6807C15.754 31.8406 15.6407 32.0938 15.6407 32.3471C15.6407 32.8402 16.0738 33.2467 16.607 33.2467H19.6324C20.4054 33.2467 21.0319 33.8731 21.0319 34.6462C21.0319 35.4192 20.4054 36.0456 19.6324 36.0456H16.607C14.5278 36.0456 12.8418 34.3863 12.8418 32.3471C12.8418 31.2475 13.3283 30.2146 14.1813 29.5215C15.9072 28.1021 16.9002 26.0363 16.9002 23.8505V20.1853C16.9002 17.613 17.8598 15.1406 19.6058 13.2081C21.0452 11.6087 22.9378 10.4758 25.0236 9.94272V9.66949C25.0236 8.17676 26.2564 6.95724 27.7758 6.95724C29.2952 6.95724 30.5281 8.17676 30.5281 9.66949V9.94272C32.6139 10.4758 34.5065 11.6087 35.9459 13.2081C37.6919 15.1406 38.6515 17.6196 38.6515 20.1853V23.8505C38.6515 26.0296 39.6377 28.0954 41.3571 29.5016C42.2167 30.2013 42.7099 31.2409 42.7099 32.3537C42.7099 34.3929 41.0239 36.0523 38.9447 36.0523Z" fill="#007F00"/>
<path d="M42.8965 22.1711C42.1501 22.1711 41.5437 21.5847 41.5437 20.8583C41.5437 17.1731 40.0643 13.7078 37.3786 11.0956C36.8655 10.6024 36.8455 9.78941 37.3387 9.27629C37.352 9.26296 37.3653 9.24963 37.3786 9.2363C37.9118 8.72317 38.7581 8.72317 39.2912 9.2363C42.49 12.3417 44.2493 16.4667 44.2493 20.8583C44.2559 21.5847 43.6495 22.1711 42.8965 22.1711Z" fill="#007F00"/>
<path d="M11.1959 20.8583C11.1959 16.4667 12.9551 12.3417 16.1539 9.2363C16.687 8.72317 17.5333 8.72317 18.0664 9.2363C18.0798 9.24963 18.0931 9.26296 18.1064 9.27629C18.5995 9.78941 18.5796 10.6024 18.0664 11.0956C15.3808 13.7078 13.9014 17.1731 13.9014 20.8583C13.9014 21.5847 13.295 22.1711 12.5486 22.1711C11.7956 22.1711 11.1892 21.5847 11.1959 20.8583Z" fill="#007F00"/>
<path d="M57.7038 20.5918H57.6039C57.5106 20.8583 57.384 21.1116 57.2307 21.3515C57.0774 21.5914 56.8775 21.8046 56.6376 21.9912C56.3977 22.1778 56.1111 22.3244 55.7846 22.431C55.4581 22.5377 55.0782 22.591 54.6584 22.591C53.5788 22.591 52.7592 22.2378 52.206 21.5247C51.6529 20.8117 51.373 19.7921 51.373 18.4593V11.8619H54.3319V18.1927C54.3319 18.8325 54.4452 19.3256 54.6717 19.6721C54.8983 20.0187 55.2848 20.1919 55.8313 20.1919C56.0578 20.1919 56.2844 20.1586 56.511 20.092C56.7376 20.0253 56.9375 19.932 57.1107 19.8054C57.284 19.6788 57.424 19.5255 57.5306 19.3389C57.6372 19.1524 57.6905 18.9324 57.6905 18.6792V11.8553H60.6493V22.3511H57.6905V20.5918H57.7038Z" fill="#001870"/>
<path d="M63.4214 22.3511V11.8553H66.3802V14.1344H66.4802C66.5335 13.8412 66.6268 13.5613 66.7601 13.2814C66.8934 13.0082 67.0733 12.7683 67.2932 12.5483C67.5131 12.3351 67.773 12.1685 68.0863 12.0352C68.3928 11.9086 68.7527 11.8486 69.1658 11.8486H69.6856V14.6075H68.9459C68.0796 14.6075 67.4398 14.7208 67.0133 14.9474C66.5935 15.174 66.3869 15.5938 66.3869 16.2069V22.3444H63.4214V22.3511Z" fill="#001870"/>
<path d="M75.6568 22.5909C74.8838 22.5909 74.1907 22.4643 73.591 22.2111C72.9845 21.9578 72.4714 21.5913 72.0516 21.1115C71.6317 20.6317 71.3052 20.0519 71.0786 19.3722C70.8521 18.6925 70.7388 17.9328 70.7388 17.0931C70.7388 16.2535 70.8521 15.4938 71.0786 14.8141C71.3052 14.1343 71.6317 13.5612 72.0516 13.0814C72.4714 12.6083 72.9845 12.2484 73.591 11.9885C74.1974 11.7353 74.8838 11.6087 75.6568 11.6087C76.4298 11.6087 77.1162 11.7353 77.7226 11.9885C78.3291 12.2418 78.8422 12.6083 79.262 13.0814C79.6819 13.5546 80.0017 14.1343 80.2283 14.8141C80.4549 15.4938 80.5682 16.2535 80.5682 17.0931C80.5682 17.9328 80.4549 18.6925 80.2283 19.3722C80.0017 20.0519 79.6752 20.6317 79.262 21.1115C78.8422 21.5913 78.3291 21.9578 77.7226 22.2111C77.1162 22.4643 76.4298 22.5909 75.6568 22.5909ZM75.6568 20.2519C76.2432 20.2519 76.6964 20.0719 77.0163 19.7121C77.3361 19.3522 77.4961 18.8391 77.4961 18.1727V16.0336C77.4961 15.3672 77.3361 14.854 77.0163 14.4942C76.6964 14.1343 76.2432 13.9544 75.6568 13.9544C75.0704 13.9544 74.6172 14.1343 74.2973 14.4942C73.9775 14.854 73.8175 15.3672 73.8175 16.0336V18.1727C73.8175 18.8391 73.9775 19.3522 74.2973 19.7121C74.6172 20.0719 75.0704 20.2519 75.6568 20.2519Z" fill="#001870"/>
<path d="M82.6738 22.3511V11.8553H85.6326V13.6346H85.7526C85.9392 13.0748 86.2591 12.6017 86.7122 12.2018C87.1654 11.8087 87.7851 11.6154 88.5715 11.6154C89.2912 11.6154 89.9043 11.7953 90.4107 12.1552C90.9172 12.515 91.2837 13.0415 91.5103 13.7346H91.5703C91.6636 13.4413 91.8035 13.1681 92.0034 12.9016C92.1967 12.6417 92.4299 12.4217 92.7098 12.2352C92.9897 12.0486 93.3029 11.902 93.6494 11.782C93.996 11.6687 94.3692 11.6154 94.769 11.6154C95.7819 11.6154 96.5549 11.9753 97.1014 12.695C97.6412 13.4147 97.9077 14.4409 97.9077 15.7737V22.3511H94.9489V16.0137C94.9489 14.6808 94.4691 14.0144 93.5095 14.0144C93.0697 14.0144 92.6698 14.1411 92.31 14.3943C91.9501 14.6475 91.7702 15.034 91.7702 15.5538V22.3511H88.8114V16.0137C88.8114 14.6808 88.3316 14.0144 87.372 14.0144C87.1587 14.0144 86.9455 14.0411 86.7389 14.1011C86.5323 14.1611 86.3457 14.261 86.1791 14.3876C86.0125 14.5209 85.8792 14.6875 85.7793 14.8808C85.6793 15.074 85.626 15.3006 85.626 15.5472V22.3445H82.6738V22.3511Z" fill="#001870"/>
<path d="M104.925 22.591C104.125 22.591 103.412 22.4644 102.786 22.2045C102.159 21.9446 101.626 21.5781 101.2 21.1049C100.766 20.6318 100.44 20.052 100.22 19.3723C100 18.6926 99.8867 17.9329 99.8867 17.0932C99.8867 16.2669 99.9933 15.5205 100.207 14.8408C100.42 14.1677 100.74 13.5879 101.16 13.1148C101.579 12.635 102.093 12.2618 102.712 12.0019C103.325 11.742 104.025 11.6154 104.812 11.6154C105.678 11.6154 106.424 11.762 107.044 12.0552C107.664 12.3484 108.17 12.7416 108.563 13.2348C108.957 13.7279 109.243 14.301 109.423 14.9407C109.603 15.5871 109.69 16.2669 109.69 16.9732V17.8529H102.952V18.0128C102.952 18.6992 103.139 19.2457 103.512 19.6455C103.885 20.052 104.472 20.2519 105.271 20.2519C105.884 20.2519 106.384 20.132 106.771 19.8854C107.157 19.6388 107.517 19.3456 107.85 19.0058L109.33 20.8517C108.863 21.3981 108.25 21.8246 107.497 22.1378C106.737 22.4377 105.884 22.591 104.925 22.591ZM104.865 13.7945C104.265 13.7945 103.799 13.9944 103.452 14.3876C103.112 14.7808 102.946 15.3073 102.946 15.9537V16.1136H106.624V15.9337C106.624 15.2939 106.478 14.7808 106.191 14.381C105.904 13.9878 105.465 13.7945 104.865 13.7945Z" fill="#001870"/>
<path d="M118.22 20.5918H118.12C118.04 20.8717 117.913 21.1382 117.74 21.3848C117.567 21.6314 117.353 21.8446 117.113 22.0245C116.867 22.2045 116.587 22.3444 116.274 22.4444C115.961 22.5443 115.634 22.5976 115.308 22.5976C113.975 22.5976 112.968 22.1312 112.289 21.1915C111.609 20.2519 111.269 18.8925 111.269 17.0998C111.269 15.3139 111.609 13.9544 112.289 13.0215C112.968 12.0885 113.975 11.622 115.308 11.622C115.987 11.622 116.587 11.8086 117.12 12.1818C117.647 12.555 117.98 13.0348 118.126 13.6212H118.226V7.56364H121.185V22.3577H118.22V20.5918ZM116.28 20.1919C116.84 20.1919 117.3 20.0587 117.667 19.7854C118.033 19.5122 118.22 19.1324 118.22 18.6525V15.5538C118.22 15.074 118.033 14.7008 117.667 14.4209C117.3 14.1477 116.834 14.0144 116.28 14.0144C115.721 14.0144 115.254 14.2143 114.888 14.6008C114.521 14.994 114.335 15.5271 114.335 16.1869V18.0061C114.335 18.6725 114.514 19.2057 114.888 19.5922C115.254 19.992 115.721 20.1919 116.28 20.1919Z" fill="#001870"/>
<path d="M55.0647 40.2506C54.0518 40.2506 53.1988 40.084 52.5057 39.7641C51.8127 39.4376 51.1929 38.9778 50.6465 38.378L52.3858 36.6187C52.759 37.0319 53.1721 37.3584 53.6253 37.5983C54.0784 37.8382 54.5916 37.9582 55.1647 37.9582C55.7511 37.9582 56.1576 37.8715 56.3842 37.6916C56.6108 37.5117 56.7241 37.2718 56.7241 36.9586C56.7241 36.4654 56.3709 36.1722 55.6645 36.0789L54.5249 35.939C52.1659 35.6458 50.9863 34.5662 50.9863 32.7003C50.9863 32.1938 51.0796 31.734 51.2796 31.3075C51.4728 30.8877 51.746 30.5278 52.0992 30.2279C52.4524 29.9281 52.8789 29.6948 53.3787 29.5282C53.8785 29.3616 54.4383 29.275 55.0714 29.275C55.6178 29.275 56.0976 29.315 56.5241 29.3816C56.944 29.4549 57.3171 29.5615 57.6437 29.7015C57.9702 29.8414 58.2701 30.0147 58.5433 30.2213C58.8165 30.4279 59.0831 30.6611 59.3497 30.9077L57.6437 32.6536C57.3105 32.3204 56.9373 32.0605 56.5175 31.8673C56.0976 31.674 55.6645 31.5807 55.2247 31.5807C54.7182 31.5807 54.3583 31.6607 54.1451 31.8206C53.9318 31.9806 53.8252 32.1938 53.8252 32.4604C53.8252 32.7403 53.8985 32.9602 54.0585 33.1135C54.2117 33.2667 54.4983 33.38 54.9248 33.4467L56.1043 33.6066C58.41 33.9131 59.5629 34.966 59.5629 36.7653C59.5629 37.2718 59.4563 37.7383 59.243 38.1648C59.0298 38.5913 58.7233 38.9644 58.3367 39.2777C57.9436 39.5909 57.4704 39.8374 56.9173 40.0107C56.3575 40.164 55.7444 40.2506 55.0647 40.2506Z" fill="#007F00"/>
<path d="M65.9603 40.2506C65.1606 40.2506 64.4476 40.124 63.8212 39.8641C63.1948 39.6042 62.6617 39.2377 62.2352 38.7645C61.802 38.2914 61.4755 37.7116 61.2556 37.0319C61.0357 36.3522 60.9224 35.5925 60.9224 34.7528C60.9224 33.9265 61.029 33.1801 61.2422 32.5004C61.4555 31.8273 61.7687 31.2475 62.1952 30.7744C62.615 30.2946 63.1281 29.9214 63.7479 29.6615C64.361 29.4016 65.0607 29.275 65.847 29.275C66.7133 29.275 67.453 29.4216 68.0728 29.7148C68.6925 30.008 69.199 30.4012 69.5921 30.8943C69.9853 31.3875 70.2719 31.9606 70.4518 32.6003C70.6317 33.2467 70.7183 33.9265 70.7183 34.6328V35.5125H63.9811V35.6724C63.9811 36.3588 64.1677 36.9053 64.5409 37.3051C64.9141 37.7116 65.5005 37.9115 66.3002 37.9115C66.9132 37.9115 67.413 37.7916 67.7995 37.545C68.1861 37.2984 68.5459 37.0052 68.8791 36.6654L70.3585 38.5113C69.892 39.0577 69.2789 39.4842 68.5259 39.7974C67.7729 40.0973 66.9199 40.2506 65.9603 40.2506ZM65.9003 31.4541C65.3006 31.4541 64.8341 31.654 64.4942 32.0472C64.1544 32.4404 63.9878 32.9668 63.9878 33.6133V33.7732H67.6663V33.5933C67.6663 32.9535 67.5197 32.4404 67.2331 32.0405C66.9399 31.6474 66.5001 31.4541 65.9003 31.4541Z" fill="#007F00"/>
<path d="M72.8179 40.0107V29.5149H75.7766V31.794H75.8766C75.9299 31.5008 76.0232 31.2209 76.1564 30.941C76.2897 30.6678 76.4696 30.4279 76.6895 30.208C76.9094 29.9947 77.1693 29.8281 77.4759 29.6948C77.7824 29.5682 78.1422 29.5082 78.5554 29.5082H79.0752V32.2671H78.3355C77.4692 32.2671 76.8228 32.3804 76.403 32.607C75.9832 32.8336 75.7699 33.2534 75.7699 33.8665V40.004H72.8179V40.0107Z" fill="#007F00"/>
<path d="M83.2736 40.0107L79.835 29.5149H82.7538L84.0533 33.7532L85.0329 37.5517H85.1928L86.1724 33.7532L87.4319 29.5149H90.2308L86.7922 40.0107H83.2736Z" fill="#007F00"/>
<path d="M93.2695 28.3953C92.6697 28.3953 92.2299 28.262 91.9567 27.9821C91.6834 27.7089 91.5435 27.3624 91.5435 26.9292V26.4894C91.5435 26.0629 91.6767 25.7164 91.9567 25.4365C92.2299 25.1632 92.6697 25.03 93.2695 25.03C93.8693 25.03 94.3025 25.1699 94.5757 25.4365C94.849 25.7097 94.9889 26.0629 94.9889 26.4894V26.9292C94.9889 27.3557 94.849 27.7089 94.5757 27.9821C94.3025 28.2554 93.8693 28.3953 93.2695 28.3953ZM91.79 29.5149H94.749V40.0107H91.79V29.5149Z" fill="#007F00"/>
<path d="M101.746 40.2506C100.96 40.2506 100.26 40.124 99.647 39.8641C99.0339 39.6042 98.5208 39.2377 98.1076 38.7645C97.6944 38.2914 97.3812 37.7116 97.168 37.0319C96.9548 36.3522 96.8481 35.5925 96.8481 34.7528C96.8481 33.9131 96.9548 33.1601 97.168 32.487C97.3812 31.814 97.6944 31.2342 98.1076 30.7544C98.5208 30.2746 99.0339 29.9081 99.647 29.6548C100.26 29.4016 100.96 29.275 101.746 29.275C102.812 29.275 103.699 29.5149 104.412 29.9947C105.125 30.4745 105.631 31.1476 105.944 32.0139L103.545 33.0535C103.452 32.6536 103.259 32.3138 102.966 32.0339C102.672 31.754 102.266 31.6141 101.746 31.6141C101.146 31.6141 100.693 31.814 100.387 32.2005C100.08 32.5937 99.9268 33.1268 99.9268 33.7932V35.7524C99.9268 36.4188 100.08 36.9453 100.387 37.3318C100.693 37.7183 101.146 37.9115 101.746 37.9115C102.279 37.9115 102.699 37.7716 103.012 37.4784C103.325 37.1918 103.552 36.8186 103.705 36.3455L106.004 37.3451C105.658 38.3447 105.118 39.0777 104.392 39.5442C103.665 40.0174 102.786 40.2506 101.746 40.2506Z" fill="#007F00"/>
<path d="M112.122 40.2506C111.322 40.2506 110.609 40.124 109.983 39.8641C109.356 39.6042 108.823 39.2377 108.397 38.7645C107.964 38.2914 107.637 37.7116 107.417 37.0319C107.197 36.3522 107.084 35.5925 107.084 34.7528C107.084 33.9265 107.191 33.1801 107.404 32.5004C107.617 31.8273 107.937 31.2475 108.357 30.7744C108.777 30.2946 109.29 29.9214 109.91 29.6615C110.523 29.4016 111.222 29.275 112.009 29.275C112.875 29.275 113.621 29.4216 114.241 29.7148C114.861 30.008 115.367 30.4012 115.761 30.8943C116.154 31.3875 116.44 31.9606 116.62 32.6003C116.8 33.2467 116.887 33.9265 116.887 34.6328V35.5125H110.149V35.6724C110.149 36.3588 110.336 36.9053 110.709 37.3051C111.082 37.7116 111.669 37.9115 112.468 37.9115C113.082 37.9115 113.581 37.7916 113.968 37.545C114.354 37.2984 114.714 37.0052 115.047 36.6654L116.527 38.5113C116.06 39.0577 115.447 39.4842 114.694 39.7974C113.935 40.0973 113.082 40.2506 112.122 40.2506ZM112.062 31.4541C111.462 31.4541 110.996 31.654 110.649 32.0472C110.309 32.4404 110.143 32.9668 110.143 33.6133V33.7732H113.821V33.5933C113.821 32.9535 113.675 32.4404 113.388 32.0405C113.102 31.6474 112.662 31.4541 112.062 31.4541Z" fill="#007F00"/>
</svg>
