<svg width="32" height="26" viewBox="0 0 32 26" fill="none" xmlns="http://www.w3.org/2000/svg">
<path d="M25.1429 9.28571C25.1429 4.23214 19.5179 0.142857 12.5714 0.142857C5.625 0.142857 0 4.23214 0 9.28571C0 12.1786 1.85714 14.7679 4.75 16.4464C4.14286 17.9286 3.35714 18.625 2.66071 19.4107C2.46429 19.6429 2.23214 19.8571 2.30357 20.1964C2.35714 20.5 2.60714 20.7143 2.875 20.7143C2.89286 20.7143 2.91071 20.7143 2.92857 20.7143C3.46429 20.6429 3.98214 20.5536 4.46429 20.4286C6.26786 19.9643 7.94643 19.1964 9.42857 18.1429C10.4286 18.3214 11.4821 18.4286 12.5714 18.4286C19.5179 18.4286 25.1429 14.3393 25.1429 9.28571ZM32 13.8571C32 10.875 30.0357 8.23214 27.0179 6.57143C27.2857 7.44643 27.4286 8.35714 27.4286 9.28571C27.4286 12.4821 25.7857 15.4286 22.8036 17.6071C20.0357 19.6071 16.4107 20.7143 12.5714 20.7143C12.0536 20.7143 11.5179 20.6786 11 20.6429C13.2321 22.1071 16.1964 23 19.4286 23C20.5179 23 21.5714 22.8929 22.5714 22.7143C24.0536 23.7679 25.7321 24.5357 27.5357 25C28.0179 25.125 28.5357 25.2143 29.0714 25.2857C29.3571 25.3214 29.625 25.0893 29.6964 24.7679C29.7679 24.4286 29.5357 24.2143 29.3393 23.9821C28.6429 23.1964 27.8571 22.5 27.25 21.0179C30.1429 19.3393 32 16.7679 32 13.8571Z" fill="url(#paint0_linear_9591_1596)"/>
<defs>
<linearGradient id="paint0_linear_9591_1596" x1="32" y1="30.0011" x2="0" y2="30.0011" gradientUnits="userSpaceOnUse">
<stop stop-color="#2FA365"/>
<stop offset="1" stop-color="#15545C"/>
</linearGradient>
</defs>
</svg>
