<svg width="220" height="218" viewBox="0 0 220 218" fill="none" xmlns="http://www.w3.org/2000/svg">
<path d="M169.736 120.641C170.995 119.382 170.994 117.341 169.735 116.083C168.476 114.826 166.435 114.826 165.177 116.085C164.179 117.084 162.852 117.634 161.438 117.634C160.025 117.634 158.696 117.084 157.699 116.085C156.441 114.826 154.4 114.825 153.141 116.083C151.882 117.341 151.881 119.382 153.139 120.641C155.355 122.858 158.302 124.079 161.438 124.079C164.574 124.079 167.521 122.858 169.736 120.641Z" fill="white"/>
<path d="M152.831 99.1919C149.589 96.0642 144.314 96.0647 141.071 99.1919C139.79 100.427 139.753 102.467 140.989 103.748C142.225 105.03 144.265 105.066 145.546 103.83C146.307 103.096 147.595 103.096 148.357 103.83C148.982 104.434 149.788 104.734 150.594 104.734C151.438 104.734 152.281 104.404 152.913 103.748C154.149 102.468 154.112 100.428 152.831 99.1919Z" fill="white"/>
<path d="M174.518 103.831C175.284 103.093 176.576 103.093 177.342 103.831C177.967 104.434 178.773 104.734 179.578 104.734C180.423 104.734 181.266 104.404 181.898 103.749C183.134 102.468 183.097 100.428 181.816 99.1924C178.571 96.0617 173.289 96.0617 170.044 99.1924C168.763 100.428 168.726 102.468 169.962 103.749C171.197 105.03 173.237 105.066 174.518 103.831Z" fill="white"/>
<path d="M100.952 165.784C102.732 165.784 104.175 164.342 104.175 162.562V160.511C104.175 158.732 102.732 157.289 100.952 157.289C99.1724 157.289 97.7295 158.732 97.7295 160.511V162.562C97.7295 164.342 99.1724 165.784 100.952 165.784Z" fill="white"/>
<path d="M119.209 165.784C120.989 165.784 122.432 164.342 122.432 162.562V160.511C122.432 158.732 120.989 157.289 119.209 157.289C117.429 157.289 115.986 158.732 115.986 160.511V162.562C115.987 164.342 117.429 165.784 119.209 165.784Z" fill="white"/>
<path d="M219.908 196.012L216.054 166.192C215.452 161.513 214.022 157.392 211.792 153.947C210.825 152.451 208.831 152.022 207.336 152.988C205.84 153.955 205.411 155.949 206.377 157.444C208.105 160.113 209.175 163.241 209.66 167.018L213.429 196.175H191.506V182.484C191.506 180.704 190.063 179.261 188.283 179.261C186.503 179.261 185.06 180.704 185.06 182.484V196.175H144.079C140.693 190.877 134.677 188.652 129.268 187.122C129.225 187.109 129.182 187.096 129.143 187.087C128.297 186.847 127.463 186.628 126.664 186.413C126.144 186.275 125.633 186.138 125.134 186C124.55 185.841 124.064 185.051 123.682 184.217C131.537 178.816 137.367 169.634 137.367 161.616V154.35C137.367 151.385 137.058 148.571 136.443 145.928C137.496 145.636 140.302 144.888 140.65 144.798L155.349 154.758C156.892 155.901 158.954 157.177 161.438 157.168C163.904 157.198 165.984 155.901 167.526 154.758L182.23 144.794C182.518 144.875 182.814 144.953 183.106 145.03C187.575 146.216 192.198 147.441 196.315 149.323C197.935 150.057 199.847 149.344 200.586 147.729C201.325 146.109 200.612 144.197 198.992 143.457C194.377 141.352 189.487 140.054 184.761 138.8C184.007 138.598 183.254 138.39 182.501 138.184C180.761 137.71 179.706 135.519 178.981 133.664C190.536 126.177 199.24 112.868 199.24 101.305V76.0571C199.24 63.09 189.431 51.3724 174.251 46.2054C167.889 44.0398 161.151 43.3218 155.28 44.1829C149.153 45.0814 144.122 47.6114 140.64 51.5293C133.533 52.6447 123.205 58.149 123.557 80.7703C123.56 80.9869 123.563 101.305 123.563 101.305C123.563 112.863 132.302 126.179 143.897 133.672C143.172 135.529 142.116 137.709 140.375 138.185C140.292 138.208 140.212 138.236 140.133 138.264C139.411 138.457 135.576 139.479 134.36 139.818C133.011 136.931 131.219 134.349 129.002 132.127C124.108 127.211 117.517 124.44 110.448 124.324H110.345C103.273 124.44 96.6817 127.211 91.7833 132.127C89.2094 134.709 87.2157 137.786 85.8149 141.258C83.2411 140.386 77.045 138.693 77.045 138.693C75.279 138.211 74.2262 135.93 73.5044 134.061C82.1024 127.516 88.3195 117.252 88.3195 108.233V99.3896C88.3195 97.6966 87.009 96.2915 85.3203 96.1712C80.5766 95.8403 78.7934 94.0142 76.9028 92.0849C74.8403 89.9794 72.0172 87.0962 66.2555 88.5872C64.7516 88.9739 63.4712 89.3134 62.3669 89.6099C59.1485 90.4692 57.5329 90.8989 56.1965 90.8989C54.8559 90.8989 53.2403 90.4692 50.0219 89.6099C48.9176 89.3134 47.6415 88.9739 46.1376 88.5872C40.3626 87.1005 37.5395 89.9837 35.4774 92.0892C33.5868 94.0185 31.8036 95.8403 27.0685 96.1712C25.3798 96.2915 24.0735 97.6966 24.0735 99.3896V108.233C24.0735 117.247 30.2868 127.516 38.8844 134.061C38.1669 135.934 37.1141 138.211 35.3438 138.693L34.4415 138.942C27.0594 140.949 19.0935 143.118 13.2841 148.768C11.8919 148.317 7.19111 147.299 6.73134 147.187C6.94619 146.723 7.32861 146.027 7.99462 145.043C15.1747 134.443 18.1047 119.047 18.1047 91.9005C18.1047 77.5838 24.2622 68.0447 30.2344 67.0908C30.3246 67.0779 30.4149 67.065 30.5008 67.0521C31.3731 66.9318 33.4227 66.6482 34.5527 64.4783C38.4844 56.9115 49.7461 52.6838 61.9449 54.192C74.1691 55.7045 88.7054 63.5205 92.83 80.9182C93.5562 84.0162 94.0073 87.4064 94.2866 91.9048C94.2866 99.1537 94.4155 107.678 95.3351 116.023C95.5327 117.793 97.1226 119.069 98.8929 118.872C100.663 118.678 101.939 117.084 101.742 115.318C100.852 107.244 100.732 98.9001 100.732 91.806C100.732 91.7416 100.728 91.6728 100.723 91.6083C100.423 86.6841 99.9241 82.933 99.1034 79.44C94.2136 58.8198 77.1124 49.5733 62.7355 47.7944C48.0836 45.9811 34.7762 51.1589 29.2637 60.719C29.2422 60.7233 29.2208 60.7276 29.1993 60.7319C19.0329 62.3561 11.6599 75.4654 11.6599 91.9005C11.6599 117.643 9.05165 131.99 2.6622 141.425C0.883294 144.05 -0.779597 147.114 0.389154 149.954C1.54072 152.756 4.52275 153.345 6.9204 153.813L7.38017 153.907C7.96884 154.023 8.52314 154.144 9.05165 154.273C7.21689 157.504 5.87626 161.491 5.23603 166.471L1.429 196.033C1.25712 197.373 1.17978 199.333 2.54619 200.884C4.06728 202.62 6.40908 202.62 7.29423 202.62H74.3113C74.1137 203.819 74.0062 205.116 74.0062 206.517V212.791C74.0062 215.622 76.3094 217.93 79.1453 217.93H141.634C144.47 217.93 146.773 215.622 146.773 212.791V206.517C146.773 205.116 146.67 203.819 146.468 202.62H214.009C215.521 202.62 217.429 202.422 218.783 200.88C220.153 199.325 220.08 197.357 219.908 196.012ZM163.857 149.46C163.818 149.486 163.78 149.512 163.741 149.542C162.426 150.517 161.786 150.723 161.481 150.723H161.438C161.421 150.723 161.408 150.728 161.395 150.723C161.09 150.723 160.449 150.517 159.135 149.542C159.096 149.512 159.062 149.486 159.019 149.46L146.928 141.266C148.156 139.843 148.994 138.203 149.599 136.762C150.28 137.062 150.964 137.349 151.655 137.606C155.239 138.935 158.349 139.554 161.444 139.554C164.544 139.554 167.652 138.934 171.22 137.606C171.913 137.349 172.598 137.061 173.28 136.759C173.885 138.199 174.722 139.839 175.95 141.264L163.857 149.46ZM142.587 57.7808C143.484 57.7013 144.307 57.2505 144.856 56.5368C148.305 52.0573 154.105 50.2677 160.251 50.2677C164.263 50.2677 168.425 51.0308 172.173 52.307C181.686 55.5447 192.795 63.7079 192.795 76.0571V89.3104H189.726C184.585 89.3104 181.375 86.2991 177.311 82.4869C172.409 77.8889 166.852 72.6768 156.923 72.6768H145.964C137.24 72.6768 135.804 79.6918 134.853 84.3337C133.843 89.2691 133.14 91.3007 130.009 91.7476C130.009 91.7476 130.006 80.9276 130.001 80.6698C129.847 70.7496 131.905 58.7257 142.587 57.7808ZM130.008 101.305V98.2208C138.739 97.4616 140.191 90.3941 141.167 85.6267C142.247 80.3548 142.819 79.1225 145.963 79.1225H156.922C164.302 79.1225 168.479 83.0404 172.901 87.1886C177.182 91.2044 182.035 95.7561 189.726 95.7561H192.795V101.305C192.795 112.716 181.665 126.856 168.974 131.565C166.145 132.618 163.752 133.109 161.444 133.109C159.138 133.109 156.74 132.618 153.897 131.563C141.171 126.841 130.008 112.702 130.008 101.305ZM91.1856 145.383C94.3266 135.591 102.589 130.92 110.396 130.77C117.173 130.899 124.296 134.435 128.108 141.765C129.04 143.561 129.779 145.581 130.26 147.836C130.428 148.606 130.566 149.405 130.669 150.23C129.753 149.774 129.07 149.186 128.413 148.532C128.219 148.343 128.026 148.15 127.828 147.948C126.445 146.539 124.675 144.73 121.619 144.571C120.278 144.49 118.948 144.767 117.659 145.11C116.369 145.454 115.087 145.83 113.794 146.167C112.419 146.525 111.01 146.933 109.578 146.742C107.53 146.469 105.515 145.772 103.523 145.247C101.384 144.683 99.2375 144.218 97.0805 144.975C95.4283 145.555 94.1573 146.724 92.955 147.952C92.0956 148.829 91.3007 149.641 90.1234 150.23C90.2531 149.189 90.5045 147.409 91.1856 145.383ZM89.8707 157.113C93.9485 156.142 96.0711 153.985 97.5621 152.459C98.0442 151.966 98.608 151.217 99.3118 151.03C100.028 150.84 100.917 151.224 101.594 151.403C103.534 151.914 105.464 152.489 107.427 152.901C109.015 153.234 110.606 153.339 112.217 153.106C114.096 152.834 115.933 152.267 117.764 151.781C118.339 151.628 118.914 151.475 119.49 151.325C119.992 151.193 120.519 151.007 121.043 150.989C121.969 150.959 122.637 151.86 123.222 152.459C124.717 153.98 126.84 156.141 130.922 157.112V161.616C130.922 168.95 123.437 178.407 115.213 181.454C113.756 181.995 112.476 182.313 111.225 182.408C109.416 182.554 107.672 182.236 105.562 181.45C105.334 181.364 105.111 181.278 104.883 181.183C96.9425 177.887 89.8703 168.753 89.8703 161.616V157.113H89.8707ZM120.816 190.903L111.978 196.093C111.939 196.119 111.896 196.141 111.857 196.166C111.853 196.171 111.849 196.171 111.845 196.175C110.422 197.094 110.362 197.094 108.914 196.162C108.875 196.141 108.841 196.119 108.802 196.093L103.371 192.905L99.9637 190.907C101.278 189.88 102.159 188.522 102.774 187.276C102.954 187.349 103.135 187.427 103.32 187.495C103.56 187.585 103.801 187.671 104.037 187.753C106.267 188.514 108.325 188.896 110.388 188.896H110.392C112.67 188.896 114.947 188.428 117.456 187.495C117.641 187.427 117.821 187.349 118.006 187.276C118.621 188.522 119.502 189.88 120.816 190.903ZM30.5193 108.233V102.196C35.654 101.122 38.2622 98.4576 40.0798 96.597C41.9232 94.715 42.3658 94.2681 44.5314 94.831C46.0138 95.2091 47.2728 95.5443 48.3642 95.8365C52.0079 96.8076 54.0146 97.3447 56.1974 97.3447C58.3802 97.3447 60.3869 96.8076 64.0306 95.8365C65.1177 95.5443 66.3767 95.2091 67.8634 94.8267C70.0205 94.2724 70.4587 94.715 72.2978 96.597C74.1197 98.4533 76.7322 101.122 81.8751 102.196V108.233C81.8751 117.57 72.7318 129.158 62.3119 133.03C60.0044 133.889 58.0579 134.284 56.1974 134.284C54.324 134.284 52.3775 133.889 50.0701 133.034C39.6544 129.158 30.5193 117.57 30.5193 108.233ZM70.5008 141.769L58.5345 149.873C58.4958 149.899 58.4571 149.929 58.4185 149.955C56.3431 151.502 56.0509 151.502 53.9755 149.955C53.9368 149.929 53.8981 149.899 53.8552 149.873L41.8931 141.769C43.0318 140.441 43.8267 138.929 44.4154 137.563C45.5326 138.138 46.6712 138.645 47.8271 139.075C50.8779 140.205 53.5376 140.729 56.1974 140.729C58.8486 140.729 61.504 140.205 64.5548 139.075C65.715 138.641 66.8537 138.134 67.9751 137.563C68.563 138.925 69.3579 140.441 70.5008 141.769ZM76.7098 196.175H33.222V182.481C33.222 180.702 31.7783 179.259 29.9994 179.259C28.2204 179.259 26.7767 180.702 26.7767 182.481V196.175H7.90998L11.6311 167.292C12.3443 161.762 13.9901 157.822 16.3533 154.887C16.5338 154.724 16.6885 154.539 16.8303 154.333C21.2346 149.306 27.9072 147.402 35.6115 145.301L50.1861 155.171C52.3474 156.769 54.2724 157.564 56.1974 157.564C58.1224 157.564 60.0474 156.769 62.2087 155.171L76.779 145.301C79.3056 145.993 81.729 146.663 84.0364 147.458C83.6368 149.649 83.4263 151.948 83.4263 154.35V161.616C83.4263 169.638 89.2528 178.816 97.0985 184.217C96.7161 185.051 96.2348 185.837 95.6547 186C95.1434 186.138 94.6278 186.275 94.1079 186.417C93.3087 186.628 92.488 186.847 91.6458 187.083C91.5942 187.1 91.5383 187.113 91.4868 187.13C86.0852 188.66 80.0915 190.894 76.7098 196.175ZM140.328 211.484H80.4524V206.517C80.4524 198.667 84.7407 195.939 92.0063 193.709L103.977 200.738C104.574 201.482 105.498 202.118 106.899 202.423C108.115 203.016 109.258 203.312 110.396 203.312C111.398 203.312 112.403 203.08 113.456 202.62C114.053 202.362 114.663 202.027 115.295 201.619L124.568 196.175L128.783 193.7C131.159 194.418 133.221 195.187 134.914 196.175C137.437 197.64 139.151 199.595 139.903 202.62C140.182 203.759 140.328 205.048 140.328 206.518V211.484H140.328Z" fill="white"/>
<path d="M50.2798 125.579C51.9968 127.297 54.2776 128.244 56.7036 128.244H56.7156C59.1399 128.241 61.4164 127.292 63.1248 125.573C64.3791 124.311 64.3731 122.27 63.1107 121.015C61.8478 119.761 59.8076 119.767 58.5534 121.03C58.0614 121.525 57.4057 121.798 56.707 121.799C56.7057 121.799 56.7049 121.799 56.7036 121.799C56.0006 121.799 55.3385 121.523 54.8392 121.023C53.581 119.764 51.5409 119.764 50.2819 121.021C49.0229 122.279 49.0216 124.32 50.2798 125.579Z" fill="white"/>
<path d="M41.7092 109.285C42.3731 108.642 43.4941 108.642 44.158 109.285C44.784 109.892 45.5923 110.193 46.4001 110.193C47.2419 110.193 48.0828 109.865 48.7148 109.213C49.9536 107.935 49.9214 105.895 48.6435 104.656C45.4952 101.605 40.3724 101.605 37.2241 104.656C35.9458 105.895 35.914 107.935 37.1528 109.213C38.3911 110.491 40.4309 110.524 41.7092 109.285Z" fill="white"/>
<path d="M69.2512 109.285C69.9134 108.643 71.0263 108.64 71.6807 109.278C72.3072 109.889 73.1193 110.193 73.9305 110.193C74.7689 110.193 75.6063 109.868 76.238 109.22C77.4806 107.946 77.4548 105.906 76.1808 104.663C73.0419 101.602 67.9214 101.599 64.7662 104.656C63.4878 105.895 63.456 107.935 64.6944 109.213C65.9328 110.491 67.9729 110.524 69.2512 109.285Z" fill="white"/>
<path d="M80.0869 34.0745L102.101 55.9125C102.19 56.0014 102.285 56.0844 102.384 56.1622L102.632 56.3568C103.553 57.0838 104.507 57.8358 105.952 57.877C105.982 57.8779 106.013 57.8783 106.044 57.8783C106.076 57.8783 106.107 57.8779 106.139 57.877C107.57 57.8349 108.52 57.0855 109.438 56.3611L109.692 56.1622C109.79 56.0844 109.885 56.001 109.974 55.9125L131.988 34.0745C132.005 34.0577 132.022 34.041 132.038 34.0238C139.752 26.0303 139.753 13.0134 132.037 5.00356C125.422 -1.84738 114.299 -1.51996 106.044 5.71555C97.7746 -1.51738 86.6483 -1.84351 80.0354 5.00613C72.3221 13.0129 72.3229 26.0299 80.0375 34.0234C80.0539 34.041 80.0706 34.0577 80.0869 34.0745ZM84.6747 9.4809C89.4799 4.50383 97.1863 6.41594 101.988 10.7334C102.312 11.0278 102.573 11.2774 102.789 11.4828C103.606 12.2627 104.532 13.1466 106.044 13.1466C107.549 13.1466 108.452 12.2855 109.249 11.5254C109.47 11.3148 109.742 11.0548 110.092 10.7407C114.895 6.41422 122.593 4.50211 127.398 9.47832C132.727 15.0097 132.735 23.9949 127.423 29.525L106.037 50.7395L84.6519 29.525C79.3397 23.9949 79.3487 15.0093 84.6747 9.4809Z" fill="white"/>
</svg>
