<svg width="18" height="17" viewBox="0 0 18 17" fill="none" xmlns="http://www.w3.org/2000/svg">
<path d="M17.4975 7.07031C17.4975 6.76897 17.1761 6.64844 16.935 6.60826L11.8926 5.875L9.63253 1.30469C9.54213 1.11384 9.37137 0.892857 9.14035 0.892857C8.90932 0.892857 8.73856 1.11384 8.64816 1.30469L6.38811 5.875L1.3457 6.60826C1.09459 6.64844 0.783203 6.76897 0.783203 7.07031C0.783203 7.25112 0.913783 7.42187 1.03432 7.55246L4.69057 11.1083L3.82673 16.1306C3.81669 16.2009 3.80664 16.2612 3.80664 16.3315C3.80664 16.5926 3.93722 16.8337 4.22852 16.8337C4.36914 16.8337 4.49972 16.7835 4.6303 16.7132L9.14035 14.3426L13.6504 16.7132C13.7709 16.7835 13.9116 16.8337 14.0522 16.8337C14.3435 16.8337 14.464 16.5926 14.464 16.3315C14.464 16.2612 14.464 16.2009 14.454 16.1306L13.5901 11.1083L17.2363 7.55246C17.3669 7.42187 17.4975 7.25112 17.4975 7.07031Z" fill="#F3761B"/>
</svg>
