<svg width="80" height="79" viewBox="0 0 80 79" fill="none" xmlns="http://www.w3.org/2000/svg">
<path d="M18.6667 52.667C14.2547 52.667 10.6667 56.255 10.6667 60.667C10.6667 65.079 14.2547 68.667 18.6667 68.667C23.0788 68.667 26.6667 65.079 26.6667 60.667C26.6667 56.255 23.0786 52.667 18.6667 52.667ZM18.6667 66.0003C15.7253 66.0003 13.3335 63.6082 13.3335 60.667C13.3335 57.7256 15.7255 55.3337 18.6667 55.3337C21.608 55.3337 24 57.7257 24 60.667C24 63.6082 21.608 66.0003 18.6667 66.0003Z" fill="#007F00"/>
<path d="M64 52.667C59.588 52.667 56 56.255 56 60.667C56 65.079 59.588 68.667 64 68.667C68.412 68.667 72 65.079 72 60.667C72 56.255 68.412 52.667 64 52.667ZM64 66.0003C61.0586 66.0003 58.6667 63.6082 58.6667 60.667C58.6667 57.7256 61.0588 55.3337 64 55.3337C66.9414 55.3337 69.3333 57.7257 69.3333 60.667C69.3333 63.6082 66.9414 66.0003 64 66.0003Z" fill="#007F00"/>
<path d="M79.7878 45.2788L67.7878 26.612C67.5424 26.2306 67.1198 26 66.6663 26H51.9998C51.2624 26 50.6665 26.5973 50.6665 27.3333V60.6666C50.6665 61.4039 51.2624 61.9998 51.9998 61.9998H57.3331V59.3331H53.3331V28.6667H65.9384L77.3331 46.392V59.3334H70.6663V62H78.6663C79.4037 62 79.9996 61.4041 79.9996 60.6667V46C79.9998 45.7453 79.9265 45.4933 79.7878 45.2788Z" fill="#007F00"/>
<path d="M58.6668 43.333V33.9997H69.3335V31.333H57.3335C56.5962 31.333 56.0002 31.9304 56.0002 32.6663V44.6663C56.0002 45.4036 56.5962 45.9996 57.3335 45.9996H77.3335V43.3329H58.6668V43.333Z" fill="#007F00"/>
<path d="M52 16.667H1.33328C0.597344 16.667 0 17.2643 0 18.0003V60.667C0 61.4043 0.597344 62.0003 1.33328 62.0003H12V59.3336H2.66672V19.3336H50.6667V59.3336H25.3333V62.0003H52C52.7373 62.0003 53.3333 61.4043 53.3333 60.667V18.0003C53.3333 17.2643 52.7373 16.667 52 16.667Z" fill="#007F00"/>
<path d="M9.33325 54H1.33325V56.6667H9.33325V54Z" fill="#007F00"/>
<path d="M50.6665 54H27.9998V56.6667H50.6665V54Z" fill="#007F00"/>
<path d="M78.6665 54H73.3333V56.6667H78.6665V54Z" fill="#007F00"/>
<path d="M52.0002 22H5.3335V24.6667H52.0002V22Z" fill="#007F00"/>
<path d="M20 59.333H17.3333V61.9997H20V59.333Z" fill="#007F00"/>
<path d="M65.3335 59.333H62.6667V61.9997H65.3335V59.333Z" fill="#007F00"/>
<path d="M24.0002 11.333H5.3335V13.9997H24.0002V11.333Z" fill="#007F00"/>
<path d="M2.66672 11.333H0V13.9997H2.66672V11.333Z" fill="#007F00"/>
</svg>
